<svg width="670" height="206" viewBox="0 0 670 206" fill="none" xmlns="http://www.w3.org/2000/svg">
<path d="M54.7955 20C54.7955 8.95431 63.7498 0 74.7955 0H595.204C606.25 0 615.204 8.9543 615.204 20V206H54.7955V20Z" fill="#D9E5E7"/>
<mask id="mask0_51_14" style="mask-type:alpha" maskUnits="userSpaceOnUse" x="0" y="0" width="670" height="206">
<path d="M0 20C0 8.95431 8.9543 0 20 0H650C661.046 0 670 8.9543 670 20V206H0V20Z" fill="#D9E5E7"/>
</mask>
<g mask="url(#mask0_51_14)">
<path d="M462.026 114.955C452 264 311.484 279.571 125.781 279.571C-59.9224 279.571 -210.465 205.87 -210.465 114.955C-210.465 24.0404 -49.7032 -76 136 -76C321.703 -76 474.037 -63.5965 462.026 114.955Z" fill="#A0B4B7"/>
<path d="M505.613 -22.3036C505.613 -33.3493 514.568 -42.3036 525.613 -42.3036H1011.15C1022.2 -42.3036 1031.15 -33.3493 1031.15 -22.3036V228.304C1031.15 239.349 1022.2 248.304 1011.15 248.304H525.613C514.568 248.304 505.613 239.349 505.613 228.304V-22.3036Z" fill="#BFD3D6"/>
</g>
</svg>
