<svg width="58" height="38" viewBox="0 0 58 38" fill="none" xmlns="http://www.w3.org/2000/svg">
<path d="M3.19685 24.0945C1.01167 26.7402 1.37008 25.748 1.37008 29.2913L1.93333 35.5H54.6167C54.6167 33 55.8142 32.189 54.1333 32C52.4524 31.811 50.2667 30.2087 46.8833 29.5C43.5 28.7913 44.367 28.3969 41.0833 25C39.6333 23.5 32.8667 11.5 29.9667 15.5C27.0667 19.5 25.8032 24.0945 25.3465 26.9291C24.74 30.6935 24.6614 30.7087 24.6614 30.7087C24.6614 30.7087 23.0419 27.5591 21.9213 26.2205C20.6606 24.3307 16.7988 19.7378 14.6142 16.2992C13.5636 14.6457 12.5591 11.5748 10.5039 10.8661C8.90551 11.811 7.02867 16.5549 6.62205 17.4803C5.48032 20.0787 5.38203 21.4488 3.19685 24.0945Z" fill="#378FE9"/>
<rect x="1.5" y="1.5" width="55" height="34.3228" rx="4.5" stroke="#378FE9" stroke-width="3"/>
<path d="M53.8898 8.50393C53.8898 10.3304 52.4585 11.811 50.6929 11.811C48.9273 11.811 47.4961 10.3304 47.4961 8.50393C47.4961 6.67747 48.9273 5.19684 50.6929 5.19684C52.4585 5.19684 53.8898 6.67747 53.8898 8.50393Z" fill="#378FE9"/>
</svg>
