<svg width="39" height="39" viewBox="0 0 39 39" fill="none" xmlns="http://www.w3.org/2000/svg">
<g clip-path="url(#clip0_2_32)">
<path d="M37.6594 17.0625L34.125 13.5306V4.875C34.125 3.53437 33.0281 2.4375 31.6875 2.4375H29.25C27.9094 2.4375 26.8125 3.53437 26.8125 4.875V6.22294L21.9375 1.35281C21.2721 0.723938 20.6627 0 19.5 0C18.3373 0 17.7279 0.723938 17.0625 1.35281L1.34063 17.0625C0.580125 17.8547 0 18.4324 0 19.5C0 20.8723 1.053 21.9375 2.4375 21.9375H4.875V36.5625C4.875 37.9031 5.97188 39 7.3125 39H14.625V26.8125C14.625 25.4719 15.7219 24.375 17.0625 24.375H21.9375C23.2781 24.375 24.375 25.4719 24.375 26.8125V39H31.6875C33.0281 39 34.125 37.9031 34.125 36.5625V21.9375H36.5625C37.947 21.9375 39 20.8723 39 19.5C39 18.4324 38.4199 17.8547 37.6594 17.0625Z" fill="#666666"/>
</g>
<defs>
<clipPath id="clip0_2_32">
<rect width="39" height="39" fill="white"/>
</clipPath>
</defs>
</svg>
