<svg width="34" height="34" viewBox="0 0 34 34" fill="none" xmlns="http://www.w3.org/2000/svg">
<path d="M5.54288 5.80061C3.59039 8.60087 5.85751 17.0071 4.34523 22.741L16.2485 22.6336L28.2547 22.5252C25.8285 16.3283 28.4026 10.3766 26.2327 6.07406C24.7721 3.17779 22.3213 1.09043 16.41 1.01231C10.4987 0.934179 7.53053 2.94992 5.54288 5.80061Z" fill="#666666"/>
<ellipse cx="2.1135" cy="2.2219" rx="2.1135" ry="2.2219" transform="matrix(0.999997 -0.00222706 -0.00211841 0.999998 14.0857 27.888)" fill="#666666"/>
<path d="M0.350684 27.3631C0.439105 25.2173 4.05754 23.4666 4.05754 23.4666L28.8911 23.4112C28.8911 23.4112 33.0687 25.4947 32.5815 27.2913C32.2189 28.6286 31.5185 29.5156 31.5185 29.5156L0.874351 29.5838C0.874351 29.5838 0.313857 28.2568 0.350684 27.3631Z" fill="#666666"/>
</svg>
